<?xml version="1.0" encoding="UTF-8" ?>
<!DOCTYPE svg PUBLIC "-//W3C//DTD SVG 1.1//EN" "http://www.w3.org/Graphics/SVG/1.1/DTD/svg11.dtd">
<svg width="200pt" height="200pt" viewBox="0 0 200 200" version="1.1" xmlns="http://www.w3.org/2000/svg">
<path fill="#ffffff" d=" M 0.00 0.00 L 99.83 0.00 C 96.42 16.25 94.01 32.71 90.90 49.02 C 81.76 50.79 73.02 54.68 65.89 60.72 C 59.92 56.52 53.99 52.27 47.98 48.14 C 52.05 54.16 56.30 60.06 60.43 66.04 C 54.09 73.23 49.92 82.12 47.96 91.48 C 31.95 94.15 16.00 97.14 0.01 99.92 L 0.00 99.08 L 0.00 0.00 Z" />
<path fill="#000000" d=" M 99.83 0.00 L 99.95 0.00 C 102.31 16.40 105.65 32.65 108.35 49.00 C 117.52 50.76 126.27 54.68 133.43 60.71 C 139.34 56.50 145.28 52.32 151.29 48.23 C 147.21 54.20 143.04 60.11 138.86 66.02 C 145.13 73.20 149.49 82.03 151.22 91.42 C 167.28 94.26 183.36 97.03 199.39 100.02 C 183.46 102.93 167.51 105.73 151.56 108.52 C 150.14 118.27 145.91 127.49 139.64 135.07 C 143.51 140.66 147.48 146.18 151.32 151.79 C 146.31 148.63 141.80 144.70 136.54 141.94 C 136.98 141.35 137.43 140.75 137.88 140.16 L 139.42 141.12 C 138.50 140.19 137.58 139.26 136.67 138.32 C 136.16 139.23 135.64 140.14 135.12 141.05 L 134.67 140.07 C 127.28 146.90 117.82 151.18 107.97 153.03 C 105.42 168.70 102.18 184.27 99.95 200.00 L 99.83 200.00 C 96.48 184.57 94.38 168.88 91.27 153.40 C 90.12 152.34 88.24 152.46 86.79 151.92 C 78.55 149.97 71.00 145.70 64.64 140.17 C 59.08 144.05 53.57 147.99 47.99 151.86 C 51.76 146.17 55.79 140.66 59.69 135.06 C 53.27 127.51 49.30 118.17 47.62 108.45 C 31.72 105.77 15.86 102.88 0.00 100.03 L 0.00 99.08 L 0.01 99.92 C 16.00 97.14 31.95 94.15 47.96 91.48 C 49.92 82.12 54.09 73.23 60.43 66.04 C 56.30 60.06 52.05 54.16 47.98 48.14 C 53.99 52.27 59.92 56.52 65.89 60.72 C 73.02 54.68 81.76 50.79 90.90 49.02 C 94.01 32.71 96.42 16.25 99.83 0.00 Z" />
<path fill="#ffffff" d=" M 99.95 0.00 L 200.00 0.00 L 200.00 200.00 L 99.95 200.00 C 102.18 184.27 105.42 168.70 107.97 153.03 C 117.82 151.18 127.28 146.90 134.67 140.07 L 135.12 141.05 C 135.64 140.14 136.16 139.23 136.67 138.32 C 137.58 139.26 138.50 140.19 139.42 141.12 L 137.88 140.16 C 137.43 140.75 136.98 141.35 136.54 141.94 C 141.80 144.70 146.31 148.63 151.32 151.79 C 147.48 146.18 143.51 140.66 139.64 135.07 C 145.91 127.49 150.14 118.27 151.56 108.52 C 167.51 105.73 183.46 102.93 199.39 100.02 C 183.36 97.03 167.28 94.26 151.22 91.42 C 149.49 82.03 145.13 73.20 138.86 66.02 C 143.04 60.11 147.21 54.20 151.29 48.23 C 145.28 52.32 139.34 56.50 133.43 60.71 C 126.27 54.68 117.52 50.76 108.35 49.00 C 105.65 32.65 102.31 16.40 99.95 0.00 Z" />
<path fill="#ffffff" d=" M 101.00 48.47 C 101.23 39.03 100.47 29.54 101.51 20.14 C 102.33 29.77 104.34 39.22 105.85 48.75 C 104.23 48.64 102.62 48.54 101.00 48.47 Z" />
<path fill="#125473" d=" M 86.80 59.32 C 95.31 56.77 104.65 56.63 113.06 59.60 C 117.24 63.60 121.29 67.74 125.37 71.83 C 127.02 73.07 126.52 75.25 126.62 77.03 C 126.45 94.24 126.77 111.46 126.47 128.66 C 123.10 132.84 119.13 136.65 115.00 140.09 C 115.00 140.25 115.01 140.57 115.01 140.73 C 114.67 141.18 113.98 142.08 113.64 142.53 C 104.65 144.89 94.96 145.56 86.11 142.34 C 81.63 137.94 77.24 133.45 72.80 129.01 C 72.80 110.34 72.80 91.67 72.80 73.00 C 77.50 68.48 81.80 63.51 86.80 59.32 Z" />
<path fill="#ffffff" d=" M 60.04 58.85 C 61.78 59.87 63.67 60.87 64.81 62.61 C 62.69 62.20 61.51 60.20 60.04 58.85 Z" />
<path fill="#ffffff" d=" M 77.52 63.58 C 80.34 61.62 83.60 60.47 86.80 59.32 C 81.80 63.51 77.50 68.48 72.80 73.00 C 72.80 91.67 72.80 110.34 72.80 129.01 C 77.24 133.45 81.63 137.94 86.11 142.34 C 84.48 141.80 82.87 141.24 81.32 140.50 C 76.32 138.48 73.30 133.77 69.39 130.30 C 69.42 110.71 69.41 91.13 69.40 71.55 C 72.15 68.94 74.65 66.06 77.52 63.58 Z" />
<path fill="#ffffff" d=" M 113.06 59.60 C 120.18 61.18 125.35 66.58 129.85 71.92 C 129.96 90.98 129.85 110.04 129.90 129.09 C 130.14 130.96 128.11 131.87 127.13 133.14 C 124.25 136.25 121.15 139.12 117.38 141.10 C 116.79 141.01 115.60 140.82 115.01 140.73 C 115.01 140.57 115.00 140.25 115.00 140.09 C 119.13 136.65 123.10 132.84 126.47 128.66 C 126.77 111.46 126.45 94.24 126.62 77.03 C 126.52 75.25 127.02 73.07 125.37 71.83 C 121.29 67.74 117.24 63.60 113.06 59.60 Z" />
<path fill="#125473" d=" M 137.09 64.76 C 136.57 63.16 138.43 61.25 139.93 61.15 C 140.13 62.58 138.66 64.99 137.09 64.76 Z" />
<path fill="#ffffff" d=" M 57.61 89.65 C 59.28 84.19 61.75 78.96 65.24 74.42 C 65.23 79.06 65.20 83.70 65.24 88.33 C 62.69 88.76 60.15 89.21 57.61 89.65 Z" />
<path fill="#ffffff" d=" M 134.10 74.63 C 137.67 79.02 140.09 84.27 141.59 89.70 C 139.14 89.21 136.68 88.76 134.21 88.42 C 134.13 83.82 134.20 79.22 134.10 74.63 Z" />
<path fill="#ffffff" d=" M 57.18 92.26 C 59.88 91.93 62.55 91.44 65.23 91.02 C 65.22 93.56 65.22 96.10 65.25 98.65 C 62.23 98.71 59.20 98.72 56.18 98.67 C 56.43 96.52 56.76 94.38 57.18 92.26 Z" />
<path fill="#ffffff" d=" M 19.78 98.59 C 29.10 97.08 38.42 95.54 47.72 93.89 C 47.56 95.49 47.41 97.10 47.27 98.70 C 38.11 98.54 28.94 98.98 19.78 98.59 Z" />
<path fill="#ffffff" d=" M 0.00 100.03 C 15.86 102.88 31.72 105.77 47.62 108.45 C 49.30 118.17 53.27 127.51 59.69 135.06 C 55.79 140.66 51.76 146.17 47.99 151.86 C 53.57 147.99 59.08 144.05 64.64 140.17 C 71.00 145.70 78.55 149.97 86.79 151.92 C 88.24 152.46 90.12 152.34 91.27 153.40 C 94.38 168.88 96.48 184.57 99.83 200.00 L 0.00 200.00 L 0.00 100.03 Z" />
<path fill="#ffffff" d=" M 134.15 101.31 C 137.14 101.31 140.12 101.32 143.10 101.25 C 142.98 103.36 142.83 105.47 142.66 107.58 C 139.83 108.02 137.02 108.51 134.21 109.02 C 134.16 106.45 134.16 103.88 134.15 101.31 Z" />
<path fill="#ffffff" d=" M 151.97 101.33 C 161.09 101.35 170.21 101.20 179.33 101.26 C 170.24 103.13 161.03 104.33 151.91 106.07 C 151.93 104.49 151.95 102.91 151.97 101.33 Z" />
<path fill="#ffffff" d=" M 57.14 110.18 C 59.83 110.72 62.53 111.22 65.24 111.67 C 65.20 116.93 65.24 122.19 65.22 127.46 C 61.29 122.39 58.62 116.41 57.14 110.18 Z" />
<path fill="#ffffff" d=" M 134.25 111.57 C 136.92 111.20 139.58 110.73 142.24 110.26 C 140.51 116.32 138.22 122.40 134.10 127.27 C 134.23 122.03 134.08 116.80 134.25 111.57 Z" />
<path fill="#ffffff" d=" M 59.69 136.76 C 62.87 134.29 61.67 140.18 59.24 139.26 C 59.35 138.63 59.58 137.38 59.69 136.76 Z" />
<path fill="#ffffff" d=" M 93.67 153.31 C 95.21 153.38 96.75 153.45 98.30 153.53 C 98.12 162.15 98.60 170.79 98.07 179.39 C 96.65 170.69 95.46 161.94 93.67 153.31 Z" />
</svg>
